<?xml version="1.0" encoding="UTF-8"?>
<!DOCTYPE svg PUBLIC "-//W3C//DTD SVG 1.1//EN" "http://www.w3.org/Graphics/SVG/1.1/DTD/svg11.dtd">
<!-- Creator: CorelDRAW 2021 (64-Bit) -->
<svg xmlns="http://www.w3.org/2000/svg" xml:space="preserve" width="8268px" height="567px" version="1.1" style="shape-rendering:geometricPrecision; text-rendering:geometricPrecision; image-rendering:optimizeQuality; fill-rule:evenodd; clip-rule:evenodd"
viewBox="0 0 8268 566.95"
 xmlns:xlink="http://www.w3.org/1999/xlink"
 xmlns:xodm="http://www.corel.com/coreldraw/odm/2003">
 <defs>
  <style type="text/css">
   <![CDATA[
    .fil1 {fill:#E4A639}
    .fil2 {fill:#ECAD4D}
    .fil0 {fill:#F19D12}
    .fil3 {fill:#FCFDF8}
   ]]>
  </style>
 </defs>
 <g id="Capa_x0020_1">
  <metadata id="CorelCorpID_0Corel-Layer"/>
  <path class="fil0" d="M7912.17 289.69c2.05,-5.35 2.45,-5.79 9.39,-5.88l41.75 -0.25c3.2,-0.74 0.52,0.48 2.42,-1.14 3.36,-5.12 1.37,-42.05 -0.24,-49.23 -34.04,-2.12 -75.94,3.14 -108.79,-0.89 -5.32,-9.74 -1.53,-93.66 -2.34,-112l-50.21 0.55c-1.16,10.31 -0.52,22.06 -0.54,32.54 -0.02,10.67 3.16,21.89 -8.09,21.82 -3.81,4.39 -8.22,3.74 -14.8,3.47 -12.21,-0.5 -34.06,2.23 -38.83,-2.71 -4.66,-4.84 -4.6,-42.61 -3.4,-51.78 0.67,-5.14 2.56,-5.8 4.9,-10.37 16.89,-2.4 34.84,-0.55 52.33,-1.2l-0.41 -48.11 -41.42 -0.41c-6.6,0.46 -5.41,3.65 -10.53,0.95 -8.95,-5.35 -4.72,-43.66 -7.43,-51.89l-1.13 -3.38c-74.21,-3.01 -150.5,-1.23 -225.5,-1.23l-6910.54 0c-15.37,-0.02 -100.62,-2.58 -108.2,3.9l0.91 42.39c28.45,8.04 61.93,-14.63 57.19,19.35 -2.23,15.98 0.94,11.79 10.56,12.73 5.5,16.27 -5.01,11.48 -10.92,11.09l-0.12 10.77c10.67,2.55 15.19,5.81 29.61,4.45 17.32,-1.64 15.4,-3.34 28.14,3.83 0.79,12.26 -2.44,18.63 -1.8,28.14 0.67,9.91 2.85,17.68 -1.23,27.38 -5.79,13.79 -30.85,2.51 -46.42,7.06 -7.14,2.08 -5.57,2.98 -5.99,12.23l-1.8 7.16c-1.62,5.47 -1.31,13.58 0.81,17.7l9 1.48c9.25,3.82 -5.64,6.34 28.61,5.85 21.06,-0.3 17.41,5.28 18.02,29.51 0.2,8.11 0.01,16.43 -0.28,24.53 -0.61,17.02 -9.84,14.43 -32.88,13.48 -7.65,-0.32 -15.37,0.54 -23.3,0.42 -1.72,9.96 -0.55,37.26 -0.01,48.5 10.96,-0.13 49.04,-1.88 56.25,3.52 1.13,18.86 0.36,39.59 0.36,58.65 0,10.82 2.77,50.04 -2.55,55.22 -4.69,4.95 -44.89,2.85 -54.62,2.54l-0.01 52.9c-1.41,1.05 -2.16,1.57 -3.62,2.72 -8.38,6.58 -20.94,1.18 -31.82,3.12 -5.97,1.06 -4.64,1 -5.55,7.29 -11.78,0.93 -6.97,3.94 -10.73,6.8 1.38,1.84 1.22,0.52 -3.23,-0.89 -0.35,11.73 -6.14,3.24 -2.05,30.9 9.23,0.17 17.61,1.71 27.29,1.68 9.63,-0.02 19.47,-0.28 29.12,-0.43 19.15,-0.29 38.96,0.27 58.25,0.23l6726.5 0c48.15,0 453.99,2.68 463.79,-1.32l-0.17 -43.11c-15.03,-3.77 -31.76,1.15 -45.19,-1.67 -16.88,-3.55 -12.71,-18.88 -12.69,-32.11 0.03,-26.14 -3.84,-33.01 12.37,-33.54 15.47,-0.51 29.44,0.66 45.08,-1.12l-0.66 -47.03c-9.08,-1.56 -18.63,-1.13 -28.04,-1.02 -12.7,0.13 -17.64,1.02 -27.68,-3.71 -1.49,-11.16 -1.49,-43.36 -0.02,-54.53 3.49,-3.44 3.49,-4.11 9.05,-4.8l41.95 -1.02c2.29,-3.04 2.37,-2.69 4.81,-3.48 0.73,-44.85 5.88,-44.83 -17.6,-45.04 -43.8,-0.39 -38.78,7.64 -38.77,-35.35 0,-16.98 -1.61,-31.08 17.72,-30.99 7.82,0.04 42.03,-1.93 46.07,2.47 4.43,4.46 2.4,45.25 3.37,54.5 11.85,1.68 48.23,-3.16 53.64,3.79 4.04,5.17 1.77,43.68 2.97,54.1 4.18,1.48 40.61,1.03 46.6,0.03 3.94,-12.73 -2.04,-42.11 3.32,-50.11z"/>
  <path class="fil1" d="M488.1 9.69c-0.55,7.3 -0.43,17.43 -0.13,24.89 1.19,29.1 -7.73,25.75 28.08,25.54 10.2,-0.06 26.14,-3.45 27.95,4.96l0.17 24.25c0.37,7.68 -0.24,20.36 -0.83,28.42 -60.87,1.67 -55.87,-13.91 -55.52,41.47l2.15 13.26 52.47 0.31c0.68,-11.42 -1.13,-44.16 1.04,-51.11l1.2 -2.8c2.38,-5.23 49.9,-3.95 53.36,-0.83 5.16,4.66 2.36,19.15 2.52,27.19 0.15,7.42 1.81,22.13 -1.8,27.89 -10.91,5.51 -41.46,-2.62 -53.43,2.55 -2.93,6.3 -1.33,43.99 -1.25,54.52 6.58,0.07 46.05,-1.01 51.08,0.07 4.51,0.98 1,0.53 5.53,2.61l0.31 42.87c0.03,5.35 0.81,9.31 -3.46,11.66 -10.11,5.69 -40.49,-2.85 -52.36,2.31 -2.81,4.51 -1.63,44.9 -0.94,53.3 11.71,0.28 47.95,-1.88 55.44,1.65 2.1,2.21 2.33,92.1 1.44,104.66 -0.6,8.47 -5.46,8.06 -13.97,8.08 -13.84,0.03 -29.37,-0.61 -42.97,0.15l-0.32 54.05c-10.54,6.59 -40.93,0.85 -55.82,2.81 -0.34,9.64 -2.24,48.21 3.02,53.67l1809.56 0.12c9.73,-0.1 19.4,-0.09 29.13,-0.06 9.05,0.04 19.64,1.95 24.25,-3.56l-0.94 -48.93c-9.13,-0.6 -17.64,-1.11 -26.81,-0.98l-20.88 -0.04c-5.51,-0.79 -4.72,-1.68 -5.48,-2.8l-0.44 -0.83c-2.83,-1.96 -1.16,0.03 -2.41,-3.55 -0.46,-1.33 -1.87,-48.17 2.04,-51.53 12.64,-4.88 40.62,1.41 54.31,-2.79 0.95,-6.23 0.79,-44.57 -0.58,-49.3 -9.81,-4.59 -39.75,1.21 -49.83,-2.69l-2.16 -1.27 0.48 0.85c-3.79,-0.94 -3.59,0.3 -4.66,-4.95l-0.14 -22.23c0.04,-9.64 -0.64,-19.83 1.04,-28.94 7.31,-3.74 19.08,-2.5 29.87,-2.5 12.4,0 17.78,1.45 25.82,-2.34 0.29,-7.86 1.54,-45.35 -0.12,-50.09 -8.88,-1.21 -30.09,0.11 -40.84,-0.02 -13.1,-0.15 -12.69,0.47 -12.15,-2.96 -4.27,-0.61 -2.13,1.37 -3.06,-4.92l0 -42.23c0.43,-10.14 3.46,-10.88 14.01,-11.02 5.41,-0.07 10.92,0.13 16.34,0.1l24.43 0.21c9.18,2.44 5.86,14.78 5.86,30.56 0,21.66 -3.51,25.35 5.7,25.73l44.42 0.74c0.02,-0.03 5.88,-0.66 5.87,11.92 -0.03,51.36 -7.39,44.37 26.72,44.17 37.39,-0.22 24.17,8.01 26.61,-52.27 -5.36,8 0.62,37.38 -3.32,50.11 -5.99,1 -42.42,1.45 -46.6,-0.02 -1.19,-10.43 1.07,-48.94 -2.96,-54.11 -5.42,-6.95 -41.8,-2.11 -53.65,-3.79 -0.97,-9.24 1.06,-50.04 -3.36,-54.5 -4.04,-4.4 -38.25,-2.43 -46.08,-2.47 -19.32,-0.09 -17.72,14.02 -17.72,30.99 -0.01,42.99 -5.03,34.96 38.77,35.35 23.48,0.22 18.33,0.19 17.61,45.04 -2.45,0.79 -2.53,0.44 -4.82,3.49l-41.94 1.02c-5.57,0.68 -5.56,1.36 -9.06,4.79 -1.47,11.17 -1.46,43.37 0.02,54.53 10.04,4.73 14.98,3.85 27.68,3.71 9.41,-0.11 18.97,-0.54 28.04,1.02l0.66 47.03c-15.63,1.78 -29.61,0.61 -45.08,1.12 -16.21,0.54 -12.34,7.4 -12.37,33.54 -0.01,13.24 -4.19,28.56 12.69,32.11 13.43,2.82 30.17,-2.1 45.19,1.67l0.17 43.11c-9.8,4 -415.63,1.32 -463.79,1.32l-1281.35 0c-19.29,0.04 -39.1,-0.52 -58.25,-0.23 -9.65,0.15 -19.49,0.41 -29.12,0.43 -9.68,0.03 -18.06,-1.51 -27.29,-1.68 -4.09,-27.66 1.7,-19.17 2.05,-30.9 4.45,1.41 4.61,2.73 3.23,0.89 3.76,-2.86 -1.05,-5.87 10.73,-6.8 0.91,-6.29 -0.42,-6.23 5.55,-7.29 10.88,-1.94 23.44,3.46 31.82,-3.12 1.46,-1.15 2.21,-1.67 3.62,-2.72l0.01 -52.9c9.73,0.31 49.93,2.41 54.62,-2.54 5.32,-5.18 2.55,-44.4 2.55,-55.22 0,-19.06 0.77,-39.79 -0.36,-58.65 -7.21,-5.4 -45.29,-3.65 -56.25,-3.52 -0.54,-11.24 -1.71,-38.54 0.01,-48.5 7.93,0.12 15.65,-0.74 23.3,-0.42 23.04,0.95 32.27,3.54 32.88,-13.48 0.29,-8.1 0.48,-16.42 0.28,-24.53 -0.61,-24.23 3.04,-29.81 -18.02,-29.51 -34.25,0.49 -19.36,-2.03 -28.61,-5.85l-9 -1.48c-2.12,-4.12 -2.43,-12.23 -0.81,-17.7l1.8 -7.16c0.42,-9.25 -1.15,-10.15 5.99,-12.23 15.57,-4.55 40.63,6.73 46.42,-7.06 4.08,-9.7 1.9,-17.47 1.23,-27.38 -0.64,-9.51 2.59,-15.88 1.8,-28.14 -12.74,-7.17 -10.82,-5.47 -28.14,-3.83 -14.42,1.36 -18.94,-1.9 -29.61,-4.45l0.12 -10.77c5.91,0.39 16.42,5.18 10.92,-11.09 -9.62,-0.94 -12.79,3.25 -10.56,-12.73 4.74,-33.98 -28.74,-11.31 -57.19,-19.35l-0.91 -42.39c7.58,-6.48 92.83,-3.92 108.2,-3.9l1465.4 0c74.99,0 151.28,-1.78 225.49,1.23l1.13 3.38c2.71,8.23 -1.52,46.54 7.44,51.89 5.11,2.7 3.93,-0.49 10.52,-0.95l41.42 0.41 0.41 48.11c-17.48,0.65 -35.43,-1.2 -52.33,1.2 -2.34,4.57 -4.23,5.23 -4.9,10.37 -1.2,9.17 -1.26,46.95 3.41,51.78 4.76,4.94 26.61,2.21 38.82,2.71 6.58,0.27 10.99,0.92 14.8,-3.47l-47.36 0.2c-5.58,-1.62 -2.15,0.77 -3.64,-3.32l0.08 -0.18c-3.09,-2 -1.03,0.26 -2.13,-3.44 -0.93,-3.13 -2.38,-46.74 2.12,-51.29 6.62,-6.67 42.47,-0.22 53.63,-3.51 1.14,-6.3 0.46,-18.67 0.21,-25.51 -0.16,-4.39 -0.04,-8.44 0.09,-12.82 0.05,-1.7 0.27,-5.55 0.13,-7.03 -0.2,-2.22 -0.2,-1.49 -0.62,-3.11 -2.08,-8.03 -45.24,1.31 -53.17,-4.03 -6.2,-3.99 -2.51,-43.72 -2.83,-53.13 -32.93,-4.06 -180.83,-2 -225.73,-1.97 -75.33,0.03 -150.66,-0.03 -225.99,0l-1303.48 0c-17.13,0 -41.08,-3.04 -53.58,3.62z"/>
  <g id="_2583659243968">
   <path class="fil0" d="M7978.77 285.7c11.81,1.19 43.46,-0.09 48.22,1.06 5.58,1.34 3.27,4.31 8.61,7.71l0.19 44.27c2.68,2.09 3.54,1.54 5.55,5.23l99.42 -0.25c0.1,-10.41 1.41,-41.67 -0.94,-48.88 -12.65,-4.67 -43.98,3.85 -52.85,-4.27 -8.8,-8.04 1.18,-42.5 -4.83,-52.16 -2.29,-2.72 -6.95,-2.41 -10.64,-2.4l-40.82 0.02c-14.53,0 -40.07,-1.34 -53.31,0.44 -0.64,16.11 -1.88,34.61 1.4,49.23z"/>
   <path class="fil0" d="M8198.36 174.45l-0.27 -50.43c-21.44,-4.69 -84.06,-1.79 -107.78,-0.48 -1.1,12.56 -2,100.52 0.93,105.7 1.29,1.31 31.45,0.01 38.52,0.05 8.03,0.04 6.87,1.4 11.24,1.93 -0.25,-9.19 -0.86,-49.96 0.86,-54.99 7.63,-3.75 46.5,-3.66 56.5,-1.78z"/>
   <path class="fil1" d="M7976.95 568.4c5.53,3.08 18.04,1.86 25.77,1.79 15.41,-0.15 24.69,2.69 25.89,-7.76 0.21,-1.84 0.07,-5.05 0.05,-7.02 -0.17,-17.46 0.93,-88.09 -0.77,-93.94l-47.44 0.07c-7.22,1.11 -4.75,5.71 -4.77,27.46 -0.02,13.38 -1.7,72.25 1.27,79.4z"/>
   <path class="fil0" d="M8146.36 454.92c8.14,3.42 42.16,1.92 51.92,0.31l0.05 -103.86c-8.81,-4.34 -10.61,-2.69 -23.21,-2.68 -8.46,0.02 -19.04,-0.53 -27.24,0.16 -3.66,9.01 -1.39,88.73 -1.52,106.07z"/>
   <path class="fil0" d="M7807.68 30.05l0.11 86.22c14.32,1.29 37.8,0.91 50.6,-0.98l-0.01 -100.35c-0.93,-6.18 -4.18,-4.97 -14.08,-4.96 -43.67,0.03 -36.66,-4.94 -36.62,20.07z"/>
   <path class="fil0" d="M8023.83 567.02c2.84,-13.42 1.32,-36.16 1.16,-51.23 -0.2,-17.39 0.28,-34.99 0.11,-52.42l-39.16 -0.37c0.34,12.38 -1.63,9.83 -1.28,32.99l-0.02 53.59c0.03,20.44 -4.21,18.92 39.19,17.44z"/>
   <path class="fil2" d="M8200.33 120.16l50.39 -1.34c9.04,-1.81 6.46,-16.73 6.22,-25.87 -0.24,-9.39 0.49,-18.62 -0.29,-27.96 -15.37,-2.9 -11.38,-1.28 -26.78,-1.49 -5.65,-0.08 -23.2,-0.98 -26.92,1.11 -3.11,1.74 -2.94,-1.09 -2.53,12.02l-0.09 43.53z"/>
   <path class="fil3" d="M8145.11 495.99c0.05,20.37 -1.62,18.4 10.16,18.29l22.18 0.08c4.97,0 10.37,0.15 15.28,-0.02 8.12,-0.28 6.61,-1.75 6.6,-13.69l-0.03 -29.12c0,-13.8 4.33,-11.44 -33.49,-11.37l-17.17 0.13c-4.89,6.15 -3.37,5.26 -3.45,15.89 -0.04,6.61 -0.1,13.21 -0.08,19.81z"/>
   <path class="fil2" d="M7979.04 347.34l0.38 -0.84c-6.49,10.58 -4.24,7.46 -4.18,26.02 0.03,7.22 -2.43,23.43 2.1,27.66 4.09,2.45 45.51,2.36 51.02,0.3 0.2,-7.08 1.81,-48.32 -1.17,-51.27 -4.23,-4.19 -33.58,1.19 -48.15,-1.87z"/>
   <path class="fil3" d="M7859.19 513.29c0.42,-9.61 2.23,-44.01 -0.79,-50.02 -2.14,-2.69 -6.96,-2.29 -10.55,-2.28l-40.6 0.3c-0.87,7.1 -2.38,48.11 0.72,51.26 3.03,3.08 43.86,1.46 51.22,0.74z"/>
   <path class="fil1" d="M8032.1 116.16c4.79,1.61 47.19,2.14 51,0.21 4.22,-8.55 3.35,-41.37 0,-50.38 -8.79,-2.03 -41.04,-1.51 -50.85,-0.48 -0.17,0.78 -0.37,48.99 -0.15,50.65z"/>
   <path class="fil3" d="M8146.02 306.12c0.02,48.19 -7.71,38.38 38.42,38.48l13.87 -0.15 0.55 -44.27c-0.14,-11.58 -5.17,-8.42 -36.55,-8.12 -17.07,0.16 -16.3,-2.67 -16.29,14.06z"/>
   <path class="fil0" d="M8203.55 511.78c3.28,2.65 44.24,2.49 48.15,0.15 5.82,-3.5 2.95,-28.61 2.87,-40.4 -0.11,-13.77 -2.5,-10.15 -17.71,-10.1 -32.24,0.11 -34.6,-3.74 -34.62,7.65 -0.01,8.64 -1.03,39.39 1.31,42.7z"/>
   <path class="fil0" d="M7919.52 413.29c0.29,53.5 -5.84,43.37 26.13,43.33 28.93,-0.04 25.75,6.06 25.75,-21.2 -0.01,-38.15 8.59,-30.49 -42.06,-30.49 -9.4,0 -9.87,-1.56 -9.82,8.36z"/>
   <path class="fil3" d="M7919.96 173.4c13.1,0.33 43.8,1.37 48.68,-0.31 5.46,-1.87 2.89,-23.17 2.89,-30.05 -0.01,-13.28 2.11,-20.16 -4.82,-21.17l-38.54 0.03c-10.84,-0.01 -8.56,-1.83 -8.58,21.14 -0.01,10.03 -0.33,20.37 0.37,30.36z"/>
   <path class="fil0" d="M8089.89 47.52l-0.37 13.14c8.68,2.22 15.62,-1.17 25.31,0.12 8.1,1.07 18.9,0.89 25.35,-1.48 1.93,-9.19 1.14,-25.26 0.96,-35.08 -0.36,-19.3 -0.02,-15.46 -19.6,-15.62 -41.59,-0.35 -31.4,-2.05 -31.65,38.92z"/>
   <path class="fil0" d="M7920.69 116.65c8.01,0.67 44.68,2.39 48.81,-0.98 3.24,-3.66 1.43,-17.88 1.44,-23.88 0,-6.65 2.12,-20.4 -1.37,-25.05 -3.75,-3.2 -41.64,-2.22 -49,-1.03 -1.3,5.11 -1.37,46.27 0.12,50.94z"/>
   <path class="fil0" d="M7914.19 513.22l0.01 -0.09 0 -50.23c-4.85,-2.23 -43.9,-2.11 -51.54,-0.7l0.16 50.38c6.63,1.73 42.42,1.01 51.37,0.64z"/>
   <path class="fil0" d="M7975.76 11.41c-0.74,6.29 -1.35,45.73 1.16,47.91 3.04,3.79 17.97,1.81 23.47,1.68 27.72,-0.68 26.57,7.06 26.09,-23.96 -0.5,-32.44 9.3,-29.94 -48.22,-28 -1.94,2.91 1.39,1.16 -2.5,2.37z"/>
   <path class="fil0" d="M7750.33 471.53l0.2 41.95 50.73 0.16c1.48,-6.75 1.42,-46.8 -0.54,-51.43l-36.79 -0.52c-13.16,0 -13.62,-3.37 -13.6,9.84z"/>
   <path class="fil0" d="M7978.87 173.59c12.02,0.63 38.58,1.34 48.66,-1.02 1.08,-10.93 0.47,-24.23 0.47,-35.39 0,-21.06 -6.27,-14.04 -44,-14.86 -11.81,-0.26 -8.19,2.22 -7.69,11.33 0.39,7.06 0.13,15.14 -0.03,22.26 -0.26,10.99 -3.44,9.26 2.59,17.68z"/>
   <path class="fil0" d="M7913.88 173.02c0.58,-8.17 0.32,-17.07 0.25,-25.32 -0.27,-30.5 5.32,-25.45 -25.56,-25.45 -8.19,0 -16.99,-0.28 -25.1,0.34 -1.37,6.41 -2.1,46.55 0.86,49.4 3.24,3.12 42.74,2.31 49.55,1.03z"/>
   <path class="fil0" d="M8202.43 335.24c0.02,10.77 -0.22,8.82 11.13,8.86l39.09 0.09c2.02,-6.75 0.9,-28.32 0.91,-38.07 0.01,-16.74 4.97,-13.66 -40.03,-13.44 -14.91,0.07 -11.21,-3.36 -11.1,42.56z"/>
   <path class="fil0" d="M7969.74 230.05c1.53,-7.78 1.69,-44.08 -0.43,-51.18l-49.52 -0.44c-0.44,6.86 -0.96,46.7 0.65,49.38 2.41,3.99 17.03,2.34 22.88,2.3 8.75,-0.07 17.72,0.18 26.42,-0.06z"/>
   <path class="fil0" d="M7862.87 371.35l0.09 27.82c7.23,1.21 47.92,2.55 50.05,0.14 1.81,-2.06 2.32,-46.57 0.02,-48.89 -2.35,-2.37 -31.51,-1.22 -38.44,-1.22 -6.4,0.01 -10.92,-1.56 -11.83,4.59 -0.47,3.2 0.1,13.57 0.11,17.56z"/>
   <path class="fil0" d="M8033.18 455.13c6.26,1.45 45.24,2.78 49.72,0 2.31,-2.09 1.36,-20.16 1.36,-24.37 0,-6.88 1.83,-19.43 -1.17,-24.36 -4.16,-2.75 -41.98,-1.82 -49.67,-0.76l-0.24 49.49z"/>
   <path class="fil0" d="M7807.14 422.61l0.18 33.16 51.15 0.15 0.25 -42.63c-0.01,-11.25 0,-8.4 -24.9,-8.4 -31.15,0.01 -26.58,-3.54 -26.68,17.72z"/>
   <path class="fil0" d="M8139.79 512.9c2.03,-8.41 2.38,-40.43 1.19,-50.41l-50.4 -0.42c-0.8,5.94 -1.38,46.7 0.34,49.39 2.37,3.7 42.57,1.8 48.87,1.44z"/>
   <path class="fil0" d="M8148.62 567.91c2.79,2.29 3.66,1.37 11.35,1.4 12.71,0.06 30.42,2.04 37.91,-3.43l0.14 -47.64c-8.43,-0.31 -16.77,0.21 -25.22,0 -28.9,-0.7 -26.42,-5.91 -25.7,25.51 0.15,6.52 -2.08,19.93 1.52,24.16z"/>
   <path class="fil0" d="M8148.04 285.4c0.27,0.17 0.72,0.02 0.89,0.39 0.17,0.38 0.67,0.3 0.91,0.36l48.44 0.23 -0.13 -45.49c-5.86,-5.17 -10.79,-4.81 -20.69,-4.95 -4.65,-0.06 -23.49,-0.61 -26.79,0.24 -1.62,0.41 -3.89,-2.42 -3.63,9.29 0.1,4.77 0.21,9.27 0.12,14.06l-0.16 19.87c0.05,1.05 0.11,2.24 0.28,3.26l0.47 1.86c0.05,0.21 0.15,0.6 0.29,0.88z"/>
   <path class="fil0" d="M7808.82 567.54c0.3,0.16 0.77,-0.03 0.96,0.35l1.99 0.56c3.95,0.64 43.03,1.04 45.35,-1.16 0.77,-1.3 0.57,-0.51 0.99,-2.75l0.17 -13.8c0.06,-6.27 0.15,-12.37 0.09,-18.66 -0.15,-14.47 2.85,-11.94 -25.72,-12.06 -28.34,-0.12 -24.65,-5.33 -24.93,10.9 -0.11,6.29 -0.07,12.38 0,18.66l1.1 17.96z"/>
   <path class="fil0" d="M8202.86 115.34l48.67 0.88c3.09,-9.67 1.67,-18.11 1.47,-27.93 -0.07,-3.53 0.65,-11.25 0.14,-14.07 -1.17,-6.47 0.63,-1.48 -2.77,-4.41l-3.8 -3.63 -38.86 -0.27c-5.57,8.87 -2.91,8.88 -4.46,26.02 -0.55,6.09 1.54,7.3 2.47,12.14 1.11,5.8 -1.64,6.43 -2.86,11.27z"/>
   <path class="fil0" d="M7978.96 398.62c8.43,0.73 40.63,2.97 45.64,-0.69 2.28,-2.08 1.59,-2.39 1.45,-10.24l-0.15 -33.64c-0.54,-2.53 0.08,-1.03 -1.04,-2.77 -5.47,-2.59 -37.76,-1.22 -46.02,-0.25 -1.33,4.4 -1.19,43 0.12,47.59z"/>
   <path class="fil0" d="M8036.28 70.59c0.51,2.87 0.48,3.34 0.93,6.27 2.14,13.67 4.44,-3.02 2.37,16.28 -0.58,5.41 1.81,7.02 0.44,11.8 -1.27,4.4 -3.48,3.29 -4.89,10.02 9.41,1.37 13.81,-0.38 22.34,-0.15 3.98,0.1 18.6,2.79 21.55,-0.89 1.34,-3.3 2.47,-39.42 0.27,-42.67 -3.59,-5.31 -36.97,-1.01 -43.01,-0.66z"/>
  </g>
  <g id="_2584186453520">
   <path class="fil0" d="M266.24 453.06c2.34,1.84 0.94,1.11 5.33,1.4 12.61,0.82 43.39,-2.76 48.32,2.08 4.34,4.26 2.27,18.59 2.29,26.06 0.01,3.48 -1.06,25.24 1.14,27.55 2.51,2.63 21.38,1.41 25.23,1.43 8.8,0.06 18.71,0.07 27.44,-0.41 1.32,-18.58 -3.36,-51.27 4.93,-55.74 6.91,-3.4 40.67,-0.24 52.05,-1.36 0.3,-8.46 1.81,-47.15 -0.87,-51.46 -5.02,-5.62 -50.4,4.83 -54.82,-5.87 -0.86,-2.06 -0.39,-0.22 -0.85,-2.82 -1.35,-7.81 2.03,-39.49 -1.92,-49.04l-52.18 -0.48c-0.67,13.42 -0.29,28.15 -0.14,41.53 0.23,20.12 -5.16,15.44 -48.27,15.24 -10.89,-0.05 -8.88,0.67 -8.74,11.5 0.1,8.1 -2.23,35.85 1.06,40.39z"/>
   <path class="fil0" d="M436.24 289.23c-2.83,6.64 -1.61,94.64 -0.95,109.02l42.59 0.4c16.33,-0.11 13.54,2.88 13.49,29.2 -0.01,9.08 0.05,18.18 -0.01,27.26l54.66 0.01c0.36,-14.37 1.57,-103.73 -0.89,-109.72 -5.55,-2.4 -31.81,-1.11 -40.49,-0.98 -17.84,0.28 -15.58,0.29 -15.36,-27.23 0.28,-33.81 1.75,-28.67 -12.57,-28.75 -8.7,-0.05 -34.22,-1.72 -40.47,0.79z"/>
   <path class="fil2" d="M94.88 399.52c9.21,0.22 49.17,1.09 54.48,-0.71 5.03,-8.85 -2.72,-43.44 3.26,-54.96 10.6,-3.12 49.93,0.99 52.86,-2.02 1.47,-1.51 2.66,-50.18 -0.2,-52.69 -5.99,-2.47 -97.55,-1.95 -110.56,-1.02l0.16 111.4z"/>
   <path class="fil1" d="M321.88 74.9l0.24 97.43 111.22 0.27 -0.05 -53.44c-10.82,-6.08 -39.21,1.02 -53.28,-2.4 -5.63,-3.4 -3.35,-14.06 -3.46,-25.56 -0.08,-9.38 0.69,-20.7 -0.47,-29.8 -11.28,-0.77 -22.08,-0.1 -33.35,-0.34 -19.58,-0.41 -20.88,-4.82 -20.85,13.84z"/>
   <path class="fil0" d="M97.14 342.81c0.01,7.55 -0.95,50.41 0.97,52.29 4.54,2.35 41.15,2.19 48.36,0.86l0.52 -41.5c-0.07,-17.6 -1.47,-13.99 43.14,-13.97l13.81 0.07c-0.46,-15.94 1.57,-33.46 -0.42,-48.68 -26.43,-3.47 -58.36,-1.47 -85.61,-1.15 -24.77,0.28 -20.98,-11.81 -20.77,52.08z"/>
   <path class="fil0" d="M429.3 166.06l0.57 -1.84c0.74,-5.66 -0.49,-4.22 -0.79,-9.07 -0.32,-4.99 1.4,-6.93 1.53,-11.54 0.02,-0.55 -0.64,-20.81 -3.59,-22.79 -3.37,-0.87 -30.96,-0.47 -35.91,0.26 -17.29,2.51 -10.81,-3.46 -18.36,-6.59 -1.47,-0.61 -5.13,-0.89 -7.45,-1.61l1.28 -5.37 7.33 -2.05c0.83,-8.01 -0.11,-14.22 -0.03,-22.41 0.23,-25 0.96,-19.37 -34.68,-19.88 -12.32,-0.18 -13.62,1.32 -13.47,19.88 0.18,21.39 0.5,42.72 0.71,64.07 0.04,4.24 -0.36,11.27 0.16,15.16 0.81,6.18 3.76,5.19 10.05,5.77 20.65,1.9 41.17,0.39 61.99,0.42 8.37,0.01 18.39,0.28 26.75,-1.17l3.91 -1.24z"/>
   <path class="fil0" d="M208.06 172.42l48.46 -0.09c3.76,-0.35 3.57,-0.52 5.36,-2.48 2.4,-3.39 1.61,-96.16 1.11,-108.42l-54.59 0.05 -0.34 110.94z"/>
   <path class="fil0" d="M95.78 182.06l0.06 47.15 109.96 0.15 0.28 -55c-11.1,0.07 -93.74,-1.22 -102.17,0.77 -5.73,1.35 -8.15,0.1 -8.13,6.93z"/>
   <path class="fil0" d="M431.1 284.46c0.18,-0.23 0.37,-0.93 0.42,-0.78l0.5 -52.17 -109.65 -0.08c-0.6,13.48 0.03,27.01 -0.18,40.33 -0.25,16.56 -4.77,13.83 27.53,13.7l76.92 0.18c4.35,-0.35 2.02,0.39 4.46,-1.18z"/>
   <path class="fil3" d="M550.24 368.44l0.01 71.05c0.03,13.26 -2.98,13.98 11.47,13.96 12.97,-0.03 27.58,1.06 39.43,-1.42l0.04 -104.06c-15.53,-1.88 -10.96,-1.92 -25.49,-1.52 -27.85,0.24 -25.5,-5.9 -25.46,21.99z"/>
   <path class="fil2" d="M320.43 229.69c0,-5.1 1.65,-50.2 -0.97,-53.44 -4.37,-5.42 -48.95,-2.3 -54.3,-1.86 -0.29,7.07 -1.73,52.23 0.51,54.47 3.67,3.66 20.74,0.5 26.97,0.64 9.1,0.19 18.75,0.6 27.79,0.19z"/>
   <path class="fil2" d="M320.66 8.5c0.82,-7.54 -15.13,-5.26 -22.19,-5.19 -8.55,0.08 -19.75,0.39 -28.05,-0.31l-2.06 2.01c-3.01,2.93 -3.19,2.41 -3.64,6.95l0.13 45.31c1.44,4.13 5.84,2.41 11.46,2.2 16.9,-0.65 16.75,2.32 44.19,-0.94l0.16 -50.03z"/>
   <path class="fil2" d="M263.24 511.45l0.23 -55.32 -55.58 0.08c-0.21,7.99 -2.24,51.08 0.97,54.32 2.86,2.9 46.93,1.5 54.38,0.92z"/>
   <path class="fil2" d="M152.63 569.32l0.92 -0.47c9.18,0.46 47.61,3.14 51.53,-2.59 3.35,-4.91 1.92,-44.56 1.25,-53.26l-54.24 0.15c-1.08,14.41 -1.56,42.45 0.54,56.17z"/>
   <path class="fil2" d="M382.09 568.8c6.19,0.16 41.82,1.5 47.1,-0.91 4.6,-2.1 1.89,-0.47 3.67,-3.59 1.62,-5.14 1.58,-46.37 -0.38,-50.25 -1.79,-1.89 -23.94,-0.92 -26.85,-0.88 -9.27,0.14 -18.45,-0.56 -27.68,-0.05 -0.01,10 0.07,20.04 0.08,30.05 0.02,13.23 -2.09,17.69 4.06,25.63z"/>
   <path class="fil1" d="M265.05 550.16c-0.02,7.64 -0.85,11.41 1.34,18 12.63,1.63 45.14,3.15 53.37,-2.42 1.13,-19.79 0.62,-31.98 0.54,-52.42l-41.64 -0.17c-6.14,-0.1 -12.67,-1.72 -13.79,3.28 -1.02,4.57 0.19,27.21 0.18,33.73z"/>
   <path class="fil2" d="M207.95 399.52l52.08 0.01c4.84,-0.01 3.56,-5.02 3.48,-10.08l-0.28 -45.17 -45.19 -0.39c-11.95,-0.02 -10.59,0.16 -10.37,11.71 0.27,14.58 -0.28,29.37 0.28,43.92z"/>
   <path class="fil2" d="M207.93 250.79l-0.29 35.8c13.45,-0.03 46.41,1.4 54.93,-1.73l1.05 -44.63c0.1,-10.69 2.25,-9.26 -26.89,-9.29 -25.95,-0.02 -28.97,-2.98 -29.08,6.9 -0.05,4.22 0.29,8.66 0.28,12.95z"/>
   <path class="fil2" d="M265.75 341.71c1.27,0.74 -0.89,0.27 2.64,0.94l52.07 0.03 0.21 -54.42c-6.86,-0.49 -51.17,-1.49 -54.15,0.51 -2.72,1.83 -3.2,48.67 -0.77,52.94z"/>
   <path class="fil1" d="M488.16 175.22c-6.2,-3.62 -42.96,-1.24 -53.05,-0.9l-0.4 50.97c0.68,8.45 6.05,3.85 26.84,4.01 31.79,0.25 29.02,9.63 28.09,-44.96 -0.02,-1.11 -0.01,-3.68 -0.13,-4.65l-1.35 -4.47z"/>
   <path class="fil2" d="M491.77 285.84c2.33,0.3 51.34,1.89 53.9,-1.27 2.11,-4.87 1.12,-44.67 0.93,-53.61l-54.29 0.24c-1.63,9.1 -1.63,45.43 -0.54,54.64z"/>
   <path class="fil2" d="M152.61 58.82c3.66,1.84 48.28,1.5 52.8,-0.1 2.89,-7.25 1.75,-45.12 -0.12,-53.76 -8.49,-1.51 -47.46,-2.06 -51.73,1.73 -3.77,3.34 -2.03,31.49 -1.68,39.09 0.13,2.76 -0.09,4.49 -0.1,7.06l0.83 5.98z"/>
   <path class="fil1" d="M432.58 3.68c-11.68,2.61 -46.8,-3.93 -52.69,3.5 -3.93,4.96 -2.98,46.75 0.12,52.17l53.33 0.29 -0.76 -55.96z"/>
   <path class="fil1" d="M95.83 115.62l4.35 0.87c7.79,-0.37 1.28,-1.45 20.06,-0.9 31.71,0.92 30.88,2.84 30.02,-25.55 -0.3,-9.7 0.36,-19.17 0.04,-28.93 -6.75,-0.13 -52.18,-0.86 -54.23,1.27 -1.67,1.73 -1.13,38.11 -1.33,47.55l1.09 5.69z"/>
   <path class="fil1" d="M38.69 244.96l0.19 33.79c0.77,5.58 0.83,2.2 3.39,6.85l51.05 0.66c0.71,-8.92 0,-19.92 0.16,-29.65 0.08,-5.06 0.07,-10.13 0.03,-15.2 -0.1,-12.3 2.28,-11.09 -37.34,-10.38 -16.06,0.29 -17.54,-2.79 -17.48,13.93z"/>
   <path class="fil1" d="M435.13 115.4c7.76,0.79 49.07,0.99 53.42,-0.71 2.61,-6.36 1.02,-30.41 1.13,-39.8 0.1,-9.34 2.25,-12.48 -6.35,-13.61l-40.44 -0.3c-8.87,0.77 -8.18,3.79 -8.05,12.71 0.22,13.85 -0.26,27.86 0.29,41.71z"/>
   <path class="fil1" d="M39.87 170.53c5.78,3.5 17.85,1.75 25.62,1.59 9.02,-0.19 18.07,0.45 27.04,-0.24 0.53,-13.63 0.81,-25.92 1.07,-39.91 0.31,-16.03 4.21,-15.64 -46.85,-13.97 -9.74,0.32 -8.24,4.07 -8.09,12.79 0.16,8.51 -1.9,34.31 1.21,39.74z"/>
   <path class="fil0" d="M149.92 510.02c0.42,-12.09 1.42,-43.44 -0.97,-52.62l-52.75 -0.14c-1.3,5.79 -2.48,49 0.37,52.49 3.38,4.14 46.97,1.41 53.35,0.27z"/>
   <path class="fil0" d="M436.4 510.1c3.42,2.56 48.94,2.66 51.6,0.14l1.29 -39.3c0.08,-18.29 3.83,-13.32 -46.5,-13.8 -9.86,-0.1 -7.89,2.58 -7.71,12.62 0.08,5.05 -1.75,36.62 1.32,40.34z"/>
   <path class="fil0" d="M38.94 8.69l0.19 49.17c8.08,3 38.83,1.85 49.66,1.27 5.05,-5.19 5.1,-5.78 4.65,-15.68 -0.34,-7.3 -0.16,-13.74 -0.19,-20.97l-1 -17.01c-9.87,-0.72 -18.59,-0.17 -27.92,-0.41 -11.96,-0.3 -17.22,-1.37 -25.39,3.63z"/>
   <path class="fil0" d="M38.27 410.38l0.04 33.78c-0.09,11.99 -1.69,10.49 24.85,10.35 5.85,-0.03 11.64,-0.07 17.49,-0.02 14.21,0.12 12.57,2.97 12.57,-19.65l-0.05 -24.46c-0.02,-11.45 3.22,-9.04 -23.02,-9.11 -7,-0.02 -14.02,-0.01 -21.02,-0.04 -9.33,-0.03 -10.88,-0.33 -10.86,9.15z"/>
   <path class="fil0" d="M152.13 424.35c-0.06,36.98 -8.41,30.05 40.33,30.08l13.43 -0.26 0.08 -52.57c-64.83,-1.09 -53.92,-4.82 -53.84,22.75z"/>
   <path class="fil3" d="M380.92 477.94c0.03,40.89 -6.77,32.16 38.73,32.31 14.92,0.05 12.54,-0.65 12.53,-26.49 -0.01,-31.31 5.25,-25.3 -37.03,-25.2 -18.22,0.04 -14.24,-0.66 -14.23,19.38z"/>
   <path class="fil3" d="M267.53 459.3c-2.06,4.68 -2.79,45.88 0.06,49.51 4.74,3.8 39.45,1.53 48.09,1.27 2.31,-8.72 1.62,-14.11 1.56,-23.99 -0.18,-31.75 5.95,-27.54 -24.6,-27.47 -6.36,0.02 -19.92,-1.21 -25.11,0.68z"/>
   <path class="fil3" d="M551.9 282.74c3.76,3.64 18.76,1.02 24.97,1.1 8.57,0.1 17.77,1.75 24.47,-1.51 0.94,-8.9 1.15,-32.91 0.32,-41.95 -0.7,-7.58 -5.36,-7.74 -13.1,-7.88 -44.9,-0.84 -38.82,-4.37 -38.32,34.6 0.07,4.62 -1.01,13.02 1.66,15.64z"/>
   <path class="fil3" d="M154.72 397.85l41.24 0.27c12.48,-0.14 8.74,0.46 8.78,-35.51l-0.06 -13.6c-7.46,-3.28 -34.65,-2.18 -42.6,-1.97 -10.82,0.28 -8.81,1.9 -8.67,12.05 0.18,12.67 -1.32,27.28 1.31,38.76z"/>
   <path class="fil3" d="M493.36 468.62c-0.01,5.89 -1.3,36.16 1.07,39.16 1.39,1.77 -0.24,2.4 10.15,2.52 4.32,0.05 8.56,0.15 12.88,0.07 30,-0.62 27.56,10.87 26.74,-44.22 -0.13,-8.71 -2.51,-7.01 -11.6,-6.99 -8.17,0.02 -16.3,0.02 -24.46,0.13 -13.88,0.18 -14.78,-3.78 -14.78,9.33z"/>
   <path class="fil3" d="M493.55 112.92l50.53 0.67c0.98,-12.34 -0.21,-26.39 0.19,-38.73 0.47,-14.65 -0.65,-12.16 -25.65,-12.55 -25.82,-0.41 -25.21,-1.32 -25.18,12.54 0.01,11.68 -1.02,26.78 0.11,38.07z"/>
   <path class="fil3" d="M553.57 170.34l44.15 -0.02c3.24,-10.73 4.08,-2.19 3.48,-22.04 -0.27,-8.79 0.5,-17.82 -0.31,-26.4 -13.66,-3.56 -32.91,-2.63 -48.22,-1.21 -4.69,9.55 -1.79,15.14 -1.4,25.31 0.26,6.87 -4.48,20.92 2.3,24.36z"/>
   <path class="fil3" d="M494.06 340.57l48.28 0.21c1.99,-28.22 1.46,-22.82 1,-50.21l-39.93 -0.55c-10.75,-0.06 -10.04,0.25 -9.75,10.82 0.37,13.31 -0.18,26.34 0.4,39.73z"/>
   <path class="fil0" d="M494.27 236.63l-0.3 46.16 49.97 -0.34c-0.16,-51.87 8.69,-49.4 -26.49,-48.29 -9.75,0.31 -14.68,2.48 -23.18,2.47z"/>
   <path class="fil0" d="M382.19 564.38c12.94,0.4 39.59,3.26 48.72,-1.62 0.46,-8.76 2.03,-38.39 -0.81,-44.12 -5.08,-2.85 -16.35,-1.35 -23.3,-1.05 -10.32,0.46 -14.94,-1.05 -24.53,-1.46 -1.66,9.16 -1.14,38.31 -0.08,48.25z"/>
   <path class="fil0" d="M155.3 55c6.12,0.66 18.34,3.04 24.22,2.34 6.81,-0.8 20.26,-0.39 24.5,-3.41 1.16,-6.55 -0.08,-40.41 -1.82,-44.55 -4.98,-1.65 -43.26,-2.9 -46.76,0.55 -2.5,2.46 -0.6,38.71 -0.14,45.07z"/>
   <path class="fil0" d="M154.48 518.77c-0.16,3.25 -1.73,42.66 1.05,45.17 6.1,3.64 40,1.21 48.04,-0.19 1.67,-11.42 0.71,-34.12 0.26,-46.36 -8.26,-0.73 -14.68,1.52 -24.18,1.19 -7.61,-0.26 -17.82,-1.16 -25.17,0.19z"/>
   <polygon class="fil0" points="269.01,340.29 315.96,340.39 316.31,291.45 269.32,291.06 "/>
   <path class="fil0" d="M441.09 112.32l44.5 0.6c1.08,-3.69 0.55,-32.06 0.44,-38.09 -0.35,-19.85 -10.73,-7.54 -22.9,-10.97 -25.36,-7.14 -23.6,5.34 -23.98,13.21 -0.17,3.54 -1.1,3.88 -1.22,8.31 -0.12,4.74 0.95,4.81 1.32,9.34 0.57,6.93 -1.75,11.49 1.84,17.6z"/>
   <path class="fil0" d="M270.93 179.07c-2.1,11.91 -3.21,8.33 -1.79,21.72 1.73,16.33 -8.89,28.92 10.13,23.85 5.49,-1.46 8.23,-0.57 12.56,0.04 9.52,1.34 17.22,-1.39 23.59,0.14 1,-13.1 2.97,-32.44 0.8,-46.25 -5.32,-2.05 -30.24,-2.59 -34.64,-1.53 -3.33,0.8 0.48,0.34 -4.29,1.4 -2.12,0.48 -4.17,0.47 -6.36,0.63z"/>
   <path class="fil0" d="M270.11 55.38c21.85,0.52 17.95,2.98 40.06,0.18 10.8,-1.37 6.41,-3.66 6.14,-33.1 -0.14,-14.54 -1.49,-14.71 -21.34,-14.19 -8.53,0.22 -15.71,-0.36 -24.49,0.26 -3.08,19.63 0.59,17.46 -0.77,23.88 -0.83,3.93 -2.67,4.7 -1.97,10.99 0.45,4.03 1.7,5.79 2.37,11.98z"/>
   <polygon class="fil0" points="211.98,395.34 258.98,395.8 259.43,348.28 211.7,347.79 "/>
   <path class="fil0" d="M212.5 506.79l42.8 0.78c2.86,-0.65 3.72,-0.68 4.14,-6.28l-0.02 -17.53c-0.06,-7.84 0,-15.76 -0.1,-23.58l-46.83 -0.44 0.01 47.05z"/>
   <path class="fil0" d="M212.19 236.58l-0.33 45.98 47.08 -0.09 0.18 -45.63c-14.65,-2.24 -32.66,-2.88 -46.93,-0.26z"/>
   <path class="fil0" d="M382.33 53.93c5.48,2.81 37.12,1.77 46.83,1.24l-1.44 -24.82c-0.13,-2.69 1.01,-3.98 1.56,-6.8 3.28,-16.84 -8.15,-15.02 -21.31,-15.46 -28.91,-0.95 -27.86,-1.16 -25.64,45.84z"/>
   <path class="fil0" d="M146.38 108.51l0 -39.44c-0.51,-0.22 -0.83,-0.85 -0.92,-0.65 -0.16,0.34 -2.07,-3.46 -6.77,-4.7 -11.97,-3.16 -15.89,2.76 -22.72,1.46 -4.69,-0.89 -3.94,-2.32 -11.86,-2.47 -8.21,10.51 -3.61,6.6 -4.85,21.5 -1.93,23.15 3.19,18.46 8.85,22.95 2.48,1.97 -3.58,-3.25 1.29,1.22 0.56,0.51 1.06,1.01 1.63,1.48 5.59,4.52 18.07,4.52 25.68,2.88 4.28,-0.92 4.89,-2.88 9.67,-4.23z"/>
   <path class="fil0" d="M42.45 167.74l2.18 0.76c8.41,1.48 -5.45,-0.04 2.24,0.39l16.28 -0.99c7.35,-0.21 15.45,0.02 22.58,-0.6 6.11,-12.95 4.25,-24.16 3.36,-41.5l-7.63 -3.92c-4.44,-1.4 -32.24,-1.05 -36.02,0.54 -5.38,2.25 -2.98,15.11 -3.13,21.2 -0.13,5.39 -0.92,20.78 0.14,24.12z"/>
   <path class="fil0" d="M270.59 563.89c17.06,1.73 28.78,0.49 44.76,-1.31 0.76,-7.37 0.47,-15.42 0.62,-22.91 0.11,-5.83 0.05,-16.3 -3.53,-20.91l-42.33 -0.47c0.06,8.15 -0.38,15.59 0.61,23.2 1.22,9.33 -1.22,14.31 -0.13,22.4z"/>
   <path class="fil0" d="M494.56 141.59c2.44,-0.43 3.2,-1.23 5.53,-0.17 0.3,0.14 1.35,0.87 1.85,1.36 7.24,7.02 -0.15,8.66 -7.53,8.63 -0.32,2.31 -0.91,5.28 -0.72,7.57 0.64,7.84 -0.14,3.73 3.3,5.54 7.07,3.74 38.42,6.24 42.7,2.61 0.22,-0.26 0.46,-1.05 0.53,-0.88 0.02,0.05 2.03,-0.7 0.2,-9.26 -0.95,-4.42 0.03,-8.05 0.58,-11.2 0.9,-5.11 -0.28,-20.12 -1.9,-23.14 -2.42,-1.74 2.66,-0.59 -4.15,-1.8l-31.94 -0.6c-1.62,2.11 -1.13,2.69 -2.59,4.07 -4.81,4.51 -7.85,-2.66 -5.86,17.27z"/>
   <path class="fil0" d="M438.61 216.8c6.64,1.8 5.31,-0.54 14.14,2.31l20.44 3.49c17.22,-1.16 12.81,-4.53 12.83,-17.24 0.01,-5.73 3.58,-18.97 -1.96,-22.8l-4.19 -1.52c-0.21,-0.09 -0.51,-0.25 -0.72,-0.34 -0.21,-0.1 -0.49,-0.29 -0.69,-0.39 -2.38,-1.16 1.52,0.06 -2.19,-1.14 -1.32,-0.43 -32.14,-2.9 -36.13,2.47 -1.51,2.05 -0.83,0.59 -1.17,3.8 -1.02,9.34 -1.24,22.11 -0.36,31.36z"/>
   <path class="fil0" d="M42.79 236.22l-0.26 37.75c4.69,0.08 8.3,-0.43 12.22,0.75l9.64 2.58c4.16,-3.09 17.88,-2.37 23.78,-2.44l0.49 -37.69c-6.98,-0.59 -15.56,-0.61 -22.66,-1.49 -4.99,-0.61 -15.7,0.48 -23.21,0.54z"/>
  </g>
 </g>
</svg>
